<svg xmlns="http://www.w3.org/2000/svg" width="100" height="50" viewBox="0 0 100 50"><rect width="100%" height="100%" fill="#FF6A00"/><path fill="#FFFFFF" d="M38.265 34.575q-1.41 0-2.42-.46-1-.45-1.59-1.33-.58-.87-.85-2.02-.26-1.14-.26-2.65v-6.19q0-1.23.17-2.21.18-.98.58-1.8t1.04-1.35q.64-.54 1.59-.84.96-.3 2.21-.3 1.22 0 2.15.26t1.55.72q.63.46 1.02 1.15t.56 1.5q.17.82.17 1.83v1.18h-4.02v-1.49q0-.43-.02-.7-.01-.27-.09-.6-.07-.32-.21-.5t-.41-.31q-.26-.13-.64-.13-.39 0-.67.15-.27.14-.42.35t-.23.56q-.08.34-.1.63t-.02.7v8.53q0 1.11.33 1.75.33.65 1.21.65 1.62 0 1.62-2.48v-2.09h-1.69v-2.46h5.4v9.68h-2.72l-.24-1.56q-.82 1.83-3 1.83m14.34-.27h-4.12v-15.58h-2.86v-3.04h9.81v3.04h-2.83zm9.37.26q-2.65 0-3.95-1.41t-1.4-4.5l3.53-.54q.02 1.75.42 2.55.4.79 1.2.79 1.04 0 1.04-1.35 0-.75-.27-1.39-.27-.63-.66-1.08t-1.1-1.06l-1.65-1.42q-.6-.52-.99-.95-.39-.42-.77-1.01t-.56-1.31-.18-1.58q0-2.33 1.4-3.6 1.39-1.27 3.82-1.28.83 0 1.51.18t1.14.47q.47.29.82.74.35.44.56.89.21.44.35 1 .14.55.19 1.01t.07.99l-3.56.46q-.01-.47-.02-.78-.02-.31-.07-.66-.04-.35-.12-.56t-.21-.4q-.13-.18-.32-.26-.2-.08-.47-.07-.54.01-.82.46-.29.44-.29.99 0 .53.13.96t.45.84q.32.4.52.6.2.21.67.63l1.59 1.39q.65.59 1.12 1.12.47.54.9 1.22.43.67.65 1.49.21.81.21 1.75 0 2.02-1.34 3.35-1.35 1.33-3.54 1.33"/></svg>