<?xml version="1.0" encoding="iso-8859-1"?>
<!-- Uploaded to: SVG Repo, www.svgrepo.com, Generator: SVG Repo Mixer Tools -->
<!DOCTYPE svg PUBLIC "-//W3C//DTD SVG 1.1//EN" "http://www.w3.org/Graphics/SVG/1.1/DTD/svg11.dtd">
<svg fill="#000000" version="1.1" id="Capa_1" xmlns="http://www.w3.org/2000/svg" xmlns:xlink="http://www.w3.org/1999/xlink" 
	 width="800px" height="800px" viewBox="0 0 612 612" xml:space="preserve">
<g>
	<g>
		<path d="M41.19,500.53h23.696c9.051,0,16.395-7.34,16.395-16.396c0-9.051-7.339-16.395-16.395-16.395H41.19v-73.22h23.696
			c9.051,0,16.395-7.34,16.395-16.396c0-9.051-7.339-16.395-16.395-16.395H41.19v-73.215h23.696c9.051,0,16.395-7.339,16.395-16.395
			c0-9.051-7.339-16.395-16.395-16.395H41.19v-73.22h23.696c9.051,0,16.395-7.339,16.395-16.395s-7.339-16.395-16.395-16.395H41.19
			V76.5h23.696c9.056,0,16.395-7.339,16.395-16.395S73.942,43.71,64.886,43.71H41.19V0H0v570.81V612l0,0h41.19l0,0H612v-41.19H41.19
			V500.53z"/>
		<path d="M562.939,35.75c-27.096,0-49.061,21.965-49.061,49.06c0,10.944,3.629,21.014,9.683,29.175l-99.341,115.897l-57.164-38.111
			c2.305-5.685,3.601-11.886,3.601-18.398c0-27.096-21.97-49.061-49.065-49.061s-49.061,21.965-49.061,49.061
			c0,13.545,5.489,25.804,14.363,34.683l-52.029,84.179l-44.604-20.669c0.646-3.184,0.99-6.474,0.99-9.845
			c0-27.095-21.965-49.061-49.061-49.061c-27.095,0-49.06,21.965-49.06,49.061c0,27.096,21.965,49.061,49.06,49.061
			c16.912,0,31.824-8.559,40.646-21.583l41.903,19.417l-39.531,63.959c-4.533-1.382-9.343-2.138-14.33-2.138
			c-27.095,0-49.06,21.966-49.06,49.061c0,27.096,21.965,49.065,49.06,49.065c27.096,0,49.061-21.965,49.061-49.061
			c0-15.242-6.947-28.859-17.853-37.857l40.129-64.925l43.428,20.124c-0.803,3.523-1.267,7.172-1.267,10.939
			c0,27.096,21.969,49.061,49.065,49.061s49.061-21.965,49.061-49.061c0-10.791-3.523-20.736-9.429-28.836l54.641-63.748
			l47.583,31.724c-2.831,6.201-4.452,13.072-4.452,20.33c0,27.095,21.966,49.061,49.061,49.061c27.096,0,49.065-21.97,49.065-49.065
			s-21.965-49.061-49.061-49.061c-12.929,0-24.652,5.04-33.416,13.21l-46.239-30.83l97.479-113.727
			c7.373,4.432,15.979,7.028,25.212,7.028C590.035,133.875,612,111.91,612,84.814C612,57.719,590.035,35.75,562.939,35.75z
			 M359.005,305.966c-7.454-4.566-16.185-7.248-25.565-7.248c-16.505,0-31.073,8.176-39.966,20.674l-41.128-19.059l50.457-81.64
			c5.791,2.405,12.13,3.744,18.791,3.744c13.693,0,26.067-5.623,34.97-14.673l55.123,36.749L359.005,305.966z"/>
	</g>
</g>
</svg>